<svg xmlns="http://www.w3.org/2000/svg" version="1.1" xmlns:xlink="http://www.w3.org/1999/xlink" xmlns:svgjs="http://svgjs.dev/svgjs" width="1000" height="1000" viewBox="0 0 1000 1000"><rect width="1000" height="1000" fill="#ffffff"></rect><g transform="matrix(0.7,0,0,0.7,149.57575757575756,393.39594026233874)"><svg viewBox="0 0 396 121" data-background-color="#ffffff" preserveAspectRatio="xMidYMid meet" height="305" width="1000" xmlns="http://www.w3.org/2000/svg" xmlns:xlink="http://www.w3.org/1999/xlink"><g id="tight-bounds" transform="matrix(1,0,0,1,0.2400000000000091,-0.08271087467443294)"><svg viewBox="0 0 395.52 121.16542174934887" height="121.16542174934887" width="395.52"><g><svg viewBox="0 0 620.8952164301159 190.2079054432348" height="121.16542174934887" width="395.52"><g transform="matrix(1,0,0,1,225.37521643011593,26.287778538102643)"><svg viewBox="0 0 395.52 137.63234836702952" height="137.63234836702952" width="395.52"><g id="textblocktransform"><svg viewBox="0 0 395.52 137.63234836702952" height="137.63234836702952" width="395.52" id="textblock"><g><svg viewBox="0 0 395.52 137.63234836702952" height="137.63234836702952" width="395.52"><g transform="matrix(1,0,0,1,0,0)"><svg width="395.52" viewBox="4.65 -35.1 128.59 44.75" height="137.63234836702952" data-palette-color="#ed2647"><path d="M18.1-16.7Q24.9-15.35 24.9-8.95L24.9-8.95Q24.9-4.4 21.6-2.1 18.3 0.2 11.75 0.2L11.75 0.2Q7.35 0.2 4.7 0L4.7 0 4.65 0 4.9-9.65 4.65-32.05 13.55-32.1Q18.05-32.1 20.48-30.1 22.9-28.1 22.9-24.3L22.9-24.3Q22.9-21.6 21.65-19.65 20.4-17.7 18.1-16.7L18.1-16.7ZM18.8-23.85Q18.8-26.45 17.38-27.63 15.95-28.8 12.75-28.8L12.75-28.8 8.7-28.8 8.6-18.05 14.1-17.9Q18.8-19 18.8-23.85L18.8-23.85ZM12.35-3.15Q16.45-3.15 18.65-4.7 20.85-6.25 20.85-9.15L20.85-9.15Q20.85-14.05 14.7-14.75L14.7-14.75 8.55-14.7 8.5-10 8.65-3.3Q10.6-3.15 12.35-3.15L12.35-3.15ZM35.05-35.1L34.75-10.05 35 0 31.05 0 31.35-9.75 31.1-34.75 35.05-35.1ZM51.75-23.3Q56.4-23.3 58.97-20.28 61.55-17.25 61.55-11.75L61.55-11.75Q61.55-5.95 58.85-2.78 56.15 0.4 51.15 0.4L51.15 0.4Q46.45 0.4 43.87-2.63 41.3-5.65 41.3-11.15L41.3-11.15Q41.3-16.95 44.02-20.13 46.75-23.3 51.75-23.3L51.75-23.3ZM51.5-20.5Q48.35-20.5 46.7-18.35 45.05-16.2 45.05-12.05L45.05-12.05Q45.05-7.25 46.67-4.85 48.3-2.45 51.4-2.45L51.4-2.45Q54.55-2.45 56.2-4.55 57.85-6.65 57.85-10.85L57.85-10.85Q57.85-15.6 56.22-18.05 54.6-20.5 51.5-20.5L51.5-20.5ZM87.99-20.95Q86.44-20.5 83.39-19.9L83.39-19.9 83.29-19.7Q84.39-17.95 84.39-15.45L84.39-15.45Q84.39-11.8 81.97-9.65 79.54-7.5 75.39-7.5L75.39-7.5Q73.74-7.5 72.29-7.9L72.29-7.9Q71.44-7.25 71.14-6.85 70.84-6.45 70.84-5.95L70.84-5.95Q70.84-4.9 72.14-4.48 73.44-4.05 76.39-3.6L76.39-3.6Q79.29-3.2 81.14-2.7 82.99-2.2 84.34-1.07 85.69 0.05 85.69 2.05L85.69 2.05Q85.69 4.15 84.27 5.9 82.84 7.65 80.37 8.65 77.89 9.65 74.94 9.65L74.94 9.65Q70.94 9.65 68.72 7.83 66.49 6 66.49 3.1L66.49 3.1Q67.69 0.7 70.89-1.25L70.89-1.25 70.89-1.5Q69.09-2.05 68.12-2.98 67.14-3.9 67.14-5.5L67.14-5.5Q68.19-7.25 70.19-8.55L70.19-8.55 70.19-8.75Q68.59-9.75 67.77-11.38 66.94-13 66.94-15.15L66.94-15.15Q66.94-18.9 69.37-21.03 71.79-23.15 75.84-23.15L75.84-23.15Q78.49-23.15 80.34-22.25L80.34-22.25Q83.79-22.9 87.59-23.95L87.59-23.95 87.99-23.65 87.99-20.95ZM75.59-10.2Q78.09-10.2 79.47-11.6 80.84-13 80.84-15.5L80.84-15.5Q80.84-17.9 79.54-19.2 78.24-20.5 75.79-20.5L75.79-20.5Q73.29-20.5 71.89-19.15 70.49-17.8 70.49-15.3L70.49-15.3Q70.49-12.9 71.82-11.55 73.14-10.2 75.59-10.2L75.59-10.2ZM82.19 2.8Q82.19 1.15 80.52 0.5 78.84-0.15 75.44-0.65L75.44-0.65 73.84-0.9Q71.94 0.25 70.97 1.3 69.99 2.35 69.99 3.5L69.99 3.5Q69.99 4.95 71.42 5.9 72.84 6.85 75.39 6.85L75.39 6.85Q78.29 6.85 80.24 5.68 82.19 4.5 82.19 2.8L82.19 2.8ZM112.34-20.95Q110.79-20.5 107.74-19.9L107.74-19.9 107.64-19.7Q108.74-17.95 108.74-15.45L108.74-15.45Q108.74-11.8 106.31-9.65 103.89-7.5 99.74-7.5L99.74-7.5Q98.09-7.5 96.64-7.9L96.64-7.9Q95.79-7.25 95.49-6.85 95.19-6.45 95.19-5.95L95.19-5.95Q95.19-4.9 96.49-4.48 97.79-4.05 100.74-3.6L100.74-3.6Q103.64-3.2 105.49-2.7 107.34-2.2 108.69-1.07 110.04 0.05 110.04 2.05L110.04 2.05Q110.04 4.15 108.62 5.9 107.19 7.65 104.72 8.65 102.24 9.65 99.29 9.65L99.29 9.65Q95.29 9.65 93.06 7.83 90.84 6 90.84 3.1L90.84 3.1Q92.04 0.7 95.24-1.25L95.24-1.25 95.24-1.5Q93.44-2.05 92.47-2.98 91.49-3.9 91.49-5.5L91.49-5.5Q92.54-7.25 94.54-8.55L94.54-8.55 94.54-8.75Q92.94-9.75 92.12-11.38 91.29-13 91.29-15.15L91.29-15.15Q91.29-18.9 93.72-21.03 96.14-23.15 100.19-23.15L100.19-23.15Q102.84-23.15 104.69-22.25L104.69-22.25Q108.14-22.9 111.94-23.95L111.94-23.95 112.34-23.65 112.34-20.95ZM99.94-10.2Q102.44-10.2 103.81-11.6 105.19-13 105.19-15.5L105.19-15.5Q105.19-17.9 103.89-19.2 102.59-20.5 100.14-20.5L100.14-20.5Q97.64-20.5 96.24-19.15 94.84-17.8 94.84-15.3L94.84-15.3Q94.84-12.9 96.17-11.55 97.49-10.2 99.94-10.2L99.94-10.2ZM106.54 2.8Q106.54 1.15 104.87 0.5 103.19-0.15 99.79-0.65L99.79-0.65 98.19-0.9Q96.29 0.25 95.31 1.3 94.34 2.35 94.34 3.5L94.34 3.5Q94.34 4.95 95.77 5.9 97.19 6.85 99.74 6.85L99.74 6.85Q102.64 6.85 104.59 5.68 106.54 4.5 106.54 2.8L106.54 2.8ZM116.64-23.05L117.39-20.1 122.89-4.3 123.24-4.3 128.94-19.75 129.69-22.9 133.24-22.9 125.04-0.8Q123.79 2.6 122.36 4.55 120.94 6.5 118.91 7.63 116.89 8.75 113.59 9.55L113.59 9.55 113.24 9.55Q112.19 8.5 111.59 7.2L111.59 7.2 111.69 6.75Q115.49 6 117.51 4.63 119.54 3.25 121.29 0L121.29 0 112.89-22.8 116.64-23.05Z" opacity="1" transform="matrix(1,0,0,1,0,0)" fill="#ed2647" class="undefined-text-0" data-fill-palette-color="primary" id="text-0"></path></svg></g></svg></g></svg></g></svg></g><g><svg viewBox="0 0 192.88352215702108 190.2079054432348" height="190.2079054432348" width="192.88352215702108"><g><svg xmlns="http://www.w3.org/2000/svg" xmlns:xlink="http://www.w3.org/1999/xlink" version="1.1" x="0" y="0" viewBox="0 0.693000000000005 99.99970636557597 98.61254336308974" enable-background="new 0 0 100 100" xml:space="preserve" height="190.2079054432348" width="192.88352215702108" class="icon-icon-0" data-fill-palette-color="accent" id="icon-0"><path d="M97.925 87.61c-1.718-2.011-2.979-3.625-3.991-6.511-2.095-7.791 0.355-16.72 0.355-16.72l-0.014 0.009c1.607-4.813 2.491-9.957 2.491-15.311 0-26.723-21.665-48.384-48.383-48.384C21.665 0.694 0 22.355 0 49.078c0 20.68 12.981 38.32 31.232 45.243l-0.009 0.001c0 0 0.114 0.046 0.322 0.123 2.392 0.888 4.874 1.59 7.428 2.094 9.888 2.23 28.944 4.76 55.475 0.314C101.04 95.723 101.165 91.405 97.925 87.61zM57.091 60.002H39.1c-1.761 0-3.188-1.428-3.188-3.189 0-1.761 1.428-3.188 3.188-3.188h17.991c1.762 0 3.188 1.427 3.188 3.188C60.279 58.574 58.853 60.002 57.091 60.002zM64.802 47.394H39.1c-1.761 0-3.188-1.427-3.188-3.188 0-1.761 1.428-3.188 3.188-3.188h25.702c1.762 0 3.188 1.428 3.188 3.188C67.99 45.967 66.563 47.394 64.802 47.394z" fill="#1e5de0" data-fill-palette-color="accent"></path></svg></g></svg></g></svg></g><defs></defs></svg><rect width="395.52" height="121.16542174934887" fill="none" stroke="none" visibility="hidden"></rect></g></svg></g></svg>